# xmcd CD database file
#
# Track frame offsets:
#	150
#	3531
#	24566
#	50575
#	72392
#	95776
#	121610
#	138137
#	142343
#	160064
#	181574
#	199226
#	213792
#	241695
#	262198
#	294509
#	315170
#	331631
#
# Disc length: 4681 seconds
#
# Revision: 0
# Processed by: cddbd v1.5.1PL0 Copyright (c) Steve Scherf et al.
# Submitted via: CDex 1.51
#
DISCID=f9124712
DTITLE=DYNAMO PRODUCTIONS - THE COLLECTION
DYEAR=2005
DGENRE=Hip-Hop
TTITLE0=Man In The Moon
TTITLE1=Back to Basics(ft.Profile)
TTITLE2=Get It Together
TTITLE3=Think (ft.Profile)
TTITLE4=Three Dimensional
TTITLE5=Hey Yeah!
TTITLE6=Casbah(Katalyst Remix)
TTITLE7=When Bop Comes Back
TTITLE8=Slip Inn
TTITLE9=Give Some Space(Krafty Kusts vs The Mexican)
TTITLE10=Dynamo Royale
TTITLE11=Dynamo and Beanz Stu
TTITLE12=Breaking a Channel
TTITLE13=Showtime
TTITLE14=A Message from The King
TTITLE15=Gotta Groove
TTITLE16=We're through
TTITLE17=Back to Baisics(ft.Profile/Jimi Entley Sound)
EXTD=YEAR: 2005.08.03
EXTT0=
EXTT1=
EXTT2=
EXTT3=
EXTT4=
EXTT5=
EXTT6=
EXTT7=
EXTT8=
EXTT9=
EXTT10=
EXTT11=
EXTT12=
EXTT13=
EXTT14=
EXTT15=
EXTT16=
EXTT17=
PLAYORDER=
